<?xml version="1.0" encoding="UTF-8"?>
<svg xmlns="http://www.w3.org/2000/svg" xmlns:xlink="http://www.w3.org/1999/xlink" id="Lag_1" x="0px" y="0px" viewBox="0 0 1537.5 106.3" style="enable-background:new 0 0 1537.5 106.3;" xml:space="preserve">
  <style type="text/css">	.st0{fill:#FFFFFF;}</style>
  <g>	<g>		<path class="st0" d="M104.4,48c-2.5-1.8-4.8-3.4-7.1-4.8C95,41.9,92.6,40.8,90,40c-2.6-0.8-5.4-1.5-8.4-1.9   c-3-0.4-6.4-0.6-10.2-0.6c-4.7,0-9.7,0.4-15,1.3c-5.2,0.8-10,2.3-14.4,4.2c-4.4,2-8,4.6-10.9,7.8c-2.9,3.2-4.3,7.2-4.3,11.9   c0,4,1.2,7.6,3.5,10.7c2.3,3.1,5.5,5.8,9.6,7.9c4.1,2.1,8.9,3.7,14.3,4.8c5.4,1.1,11.3,1.7,17.5,1.7c4.9,0,10-0.4,15.1-1.2   c5.1-0.8,9.9-2,14.3-3.5V69.4H63v-5.3h47.6v21.6c-3.4,1.3-6.7,2.5-10,3.3c-3.2,0.9-6.4,1.6-9.6,2.2c-3.2,0.6-6.5,1-9.8,1.2   c-3.3,0.3-6.7,0.4-10.4,0.4c-7,0-13.8-0.7-20.2-2c-6.4-1.3-12.1-3.3-17-5.9s-8.9-5.8-11.8-9.5c-2.9-3.7-4.4-8-4.4-12.9   c0-5.5,1.7-10.2,5.1-14.1s7.8-7,13.1-9.4C41,36.8,46.8,35,53,34c6.2-1.1,12.2-1.6,17.9-1.6c5,0,9.4,0.3,13.3,0.8   c3.9,0.5,7.4,1.3,10.6,2.4c3.2,1.1,6.2,2.4,9,4c2.8,1.6,5.6,3.4,8.4,5.5L104.4,48z"></path>		<path class="st0" d="M298.3,91.8l-14.6-19.1h-45.1L224,91.8h-10l44.2-58.4h5.9l44.3,58.4H298.3z M270.1,54.4c-1.5-2-3-4-4.5-6   c-1.5-2-3-4-4.5-6.1c-1.5,2-2.9,4-4.3,5.9c-1.4,2-2.8,3.9-4.3,5.8l-9.9,13.4h37.1L270.1,54.4z"></path>		<path class="st0" d="M497.4,82.1c-2.3,2.2-5.4,4-9.4,5.5c-4.1,1.6-9,2.9-14.6,3.9c-5.6,0.9-11.8,1.4-18.5,1.4   c-5.6,0-10.7-0.2-15.2-0.7c-4.5-0.4-8.7-1.1-12.4-2c-3.7-0.9-7.1-2-10.1-3.3c-3-1.3-5.8-2.8-8.3-4.5l7.4-3.5   c3.7,2.7,8.7,4.9,14.9,6.5c6.2,1.6,14.2,2.4,23.9,2.4c6.1,0,11.4-0.4,16-1.2c4.6-0.8,8.6-1.9,11.9-3.2c2.6-1,4.7-2.2,6.2-3.7   c1.5-1.4,2.2-2.9,2.2-4.5c0-2.1-0.9-3.8-2.6-5c-1.8-1.2-3.6-2.1-5.7-2.8c-1.1-0.4-2.4-0.7-3.8-1c-1.4-0.3-3.1-0.7-5.3-1   c-2.2-0.4-4.9-0.8-8.2-1.3c-3.3-0.5-7.4-1-12.3-1.6c-5.1-0.7-9.3-1.2-12.5-1.7c-3.3-0.5-6-0.9-8.1-1.2c-2.2-0.4-3.9-0.7-5.3-1   c-1.4-0.3-2.7-0.7-3.9-1c-1.4-0.5-2.8-1-4.1-1.7c-1.3-0.6-2.5-1.4-3.5-2.3c-1-0.9-1.8-1.9-2.4-3.1c-0.6-1.2-0.9-2.4-0.9-3.8   c0-2,1-4,3-6c2-2,5.1-3.6,9.4-5c4-1.2,8.5-2,13.5-2.6c5.1-0.5,10.7-0.8,16.9-0.8c5.5,0,10.4,0.2,14.7,0.7c4.3,0.4,8,1.1,11.3,2   c3.3,0.9,6.2,2,8.6,3.3c2.4,1.4,4.6,3,6.4,4.8l-8.3,2.5c-1.2-1.3-2.8-2.4-4.6-3.5c-1.8-1-4-1.9-6.5-2.6c-2.6-0.7-5.6-1.2-9.2-1.6   c-3.6-0.4-7.7-0.5-12.5-0.5c-5.4,0-10.3,0.2-14.9,0.7c-4.6,0.5-8.3,1.2-11.1,2c-5,1.6-7.5,3.8-7.5,6.6c0,1.4,0.6,2.6,1.9,3.7   c1.3,1.1,3,1.9,5.1,2.5c1.2,0.4,2.6,0.7,4,1c1.5,0.3,3.3,0.6,5.5,1c2.2,0.4,4.9,0.7,8,1.2c3.2,0.4,7.1,0.9,11.9,1.5   c4,0.5,7.6,1,10.7,1.4c3.1,0.4,5.8,0.9,8.3,1.3c2.5,0.4,4.6,0.9,6.5,1.3c1.9,0.5,3.7,1.1,5.3,1.7c1.4,0.5,2.8,1.1,4.2,1.9   c1.4,0.7,2.6,1.6,3.7,2.5c1.1,1,2,2,2.6,3.2c0.7,1.2,1,2.5,1,4C500.8,77.6,499.7,80,497.4,82.1z"></path>		<path class="st0" d="M640.4,38.6v53.2H631V38.7h-38.5v-5.3h86.4v5.2H640.4z"></path>		<path class="st0" d="M869,91.8L827.2,68h-30.7v23.8h-9.4V33.4h34.6c16.9,0,29.3,1.5,37.4,4.4c8,2.9,12.1,7.1,12.1,12.5   c0,2.3-0.8,4.4-2.5,6.3c-1.7,1.9-3.9,3.6-6.8,5.1c-2.9,1.5-6.2,2.7-10.1,3.7c-3.9,1-8,1.7-12.5,2.1l43,24.2H869z M860.4,46.3   c-0.9-1.4-2.8-2.6-5.7-3.8c-2.9-1.1-7.1-2-12.5-2.8s-12.6-1.1-21.6-1.1h-24.1v24.2h33c5.4,0,10.2-0.4,14.2-1.1   c4-0.7,7.4-1.7,10.1-2.9c2.7-1.2,4.7-2.5,6-4c1.3-1.5,2-3,2-4.5C861.8,49,861.3,47.6,860.4,46.3z"></path>		<path class="st0" d="M1080.7,76c-3.1,3.8-7.1,7-12.2,9.5c-5.1,2.5-10.9,4.4-17.5,5.6c-6.6,1.2-13.4,1.8-20.4,1.8   c-7,0-13.8-0.6-20.4-1.9c-6.6-1.3-12.4-3.1-17.5-5.7c-5.1-2.5-9.1-5.7-12.2-9.5c-3.1-3.8-4.6-8.2-4.6-13.3s1.5-9.5,4.6-13.3   c3.1-3.8,7.1-6.9,12.2-9.5c5.1-2.5,10.9-4.4,17.5-5.6c6.6-1.2,13.4-1.8,20.4-1.8c7,0,13.8,0.6,20.4,1.8c6.6,1.2,12.4,3.1,17.5,5.6   c5.1,2.5,9.1,5.7,12.2,9.5c3.1,3.8,4.6,8.3,4.6,13.4C1085.3,67.7,1083.8,72.2,1080.7,76z M1075.9,62.6c0-4.3-1.3-8-3.8-11.1   c-2.5-3.2-5.8-5.8-10-7.9c-4.2-2.1-9-3.6-14.5-4.7c-5.5-1-11.2-1.5-17.2-1.5s-11.7,0.5-17.1,1.5c-5.5,1-10.2,2.6-14.4,4.7   c-4.1,2.1-7.5,4.7-10,7.9c-2.5,3.2-3.8,6.9-3.8,11.1s1.3,8,3.8,11.1c2.5,3.1,5.8,5.7,10,7.8c4.2,2.1,9,3.6,14.4,4.7   c5.4,1,11.2,1.5,17.1,1.5s11.7-0.5,17.1-1.5c5.5-1,10.3-2.6,14.4-4.7c4.2-2.1,7.5-4.7,10-7.8c2.5-3.1,3.7-6.8,3.7-11.1H1075.9z"></path>		<path class="st0" d="M1325.3,91.8c0-11.5,0-21.3,0-29.2c0-7.9,0-14.4,0.1-19.4c-5.6,5-13,11.5-22.1,19.4   c-9.1,8-20.2,17.7-33.3,29.1h-6.3c-13.1-11.4-24.2-21.2-33.2-29.2c-9.1-8-16.4-14.5-22-19.4c0.1,5,0.2,11.5,0.2,19.4   c0,8,0.1,17.7,0.1,29.1h-9.5V33.4h9.1c14.2,12.5,26.2,23,35.9,31.5c9.7,8.5,17.3,15.1,22.7,20c5.5-4.8,13-11.5,22.7-20   s21.7-19,36-31.5h9v58.4H1325.3z"></path>		<path class="st0" d="M1450.2,91.8V33.4h67.9v5.2h-58.6v20.1h47.6V64h-47.6v22.5h60.4v5.3H1450.2z"></path>	</g>	<g>		<path class="st0" d="M1478.9,26h-12.4l26.2-12.5h16.2L1478.9,26z"></path>	</g></g>
</svg>
